<svg xmlns="http://www.w3.org/2000/svg" viewBox="0 0 100 100" width="100" height="100">
  <rect width="100%" height="100%" rx="22" fill="#030712" />
  <!-- Rotating Hexagon outline -->
  <polygon points="50,15 80,32 80,68 50,85 20,68 20,32" fill="rgba(9, 13, 22, 0.6)" stroke="#00f0ff" stroke-width="4" />
  <!-- Brackets -->
  <path d="M22,35 L10,50 L22,65" fill="none" stroke="#00f0ff" stroke-width="4" stroke-linecap="round" stroke-linejoin="round" />
  <path d="M78,35 L90,50 L78,65" fill="none" stroke="#00ffd2" stroke-width="4" stroke-linecap="round" stroke-linejoin="round" />
  <!-- Inner stylized D -->
  <path d="M42,35 H54 C61,35 65,39 65,47 C65,55 61,59 54,59 H42 Z M49,41 V53 H53 C57,53 58,51 58,47 C58,43 57,41 53,41 Z" fill="#00f0ff" />
</svg>
